<?xml version="1.0" encoding="iso-8859-1"?>
<!-- Generator: Adobe Illustrator 18.0.0, SVG Export Plug-In . SVG Version: 6.00 Build 0)  -->
<!DOCTYPE svg PUBLIC "-//W3C//DTD SVG 1.1//EN" "http://www.w3.org/Graphics/SVG/1.1/DTD/svg11.dtd">
<svg version="1.1" id="Capa_1" xmlns="http://www.w3.org/2000/svg" xmlns:xlink="http://www.w3.org/1999/xlink" x="0px" y="0px"
	 viewBox="0 0 54 54" style="enable-background:new 0 0 54 54;" xml:space="preserve">
<g>
	<g>
		<path style="fill:#4FBA6F;" d="M53,27L53,27c0,14.359-11.641,26-26,26h0C12.641,53,1,41.359,1,27v0C1,12.641,12.641,1,27,1h0
			C41.359,1,53,12.641,53,27z"/>
		<path style="fill:#4FBA6F;" d="M27,54C12.112,54,0,41.888,0,27S12.112,0,27,0s27,12.112,27,27S41.888,54,27,54z M27,2
			C13.215,2,2,13.215,2,27s11.215,25,25,25s25-11.215,25-25S40.785,2,27,2z"/>
	</g>
	<path style="fill:#FFFFFF;" d="M39,32.706c-0.256,0-0.512-0.098-0.707-0.293L27,21.12L15.707,32.413
		c-0.391,0.391-1.023,0.391-1.414,0s-0.391-1.023,0-1.414l11.498-11.498c0.666-0.666,1.752-0.666,2.418,0l11.498,11.498
		c0.391,0.391,0.391,1.023,0,1.414C39.512,32.608,39.256,32.706,39,32.706z"/>
</g>
<g>
</g>
<g>
</g>
<g>
</g>
<g>
</g>
<g>
</g>
<g>
</g>
<g>
</g>
<g>
</g>
<g>
</g>
<g>
</g>
<g>
</g>
<g>
</g>
<g>
</g>
<g>
</g>
<g>
</g>
</svg>
