<?xml version="1.0" encoding="iso-8859-1"?>
<!-- Generator: Adobe Illustrator 18.0.0, SVG Export Plug-In . SVG Version: 6.00 Build 0)  -->
<!DOCTYPE svg PUBLIC "-//W3C//DTD SVG 1.1//EN" "http://www.w3.org/Graphics/SVG/1.1/DTD/svg11.dtd">
<svg version="1.1" id="Capa_1" xmlns="http://www.w3.org/2000/svg" xmlns:xlink="http://www.w3.org/1999/xlink" x="0px" y="0px"
	 viewBox="0 0 54 54" style="enable-background:new 0 0 54 54;" xml:space="preserve">
<g>
	<g>
		<path style="fill:#4FBA6F;" d="M1,27L1,27C1,12.641,12.641,1,27,1h0c14.359,0,26,11.641,26,26v0c0,14.359-11.641,26-26,26h0
			C12.641,53,1,41.359,1,27z"/>
		<path style="fill:#4FBA6F;" d="M27,54C12.112,54,0,41.888,0,27S12.112,0,27,0s27,12.112,27,27S41.888,54,27,54z M27,2
			C13.215,2,2,13.215,2,27s11.215,25,25,25s25-11.215,25-25S40.785,2,27,2z"/>
	</g>
	<path style="fill:#FFFFFF;" d="M27,34.999c-0.438,0-0.875-0.167-1.209-0.5L14.293,23.001c-0.391-0.391-0.391-1.023,0-1.414
		s1.023-0.391,1.414,0L27,32.88l11.293-11.293c0.391-0.391,1.023-0.391,1.414,0s0.391,1.023,0,1.414L28.209,34.499
		C27.876,34.832,27.438,34.999,27,34.999z"/>
</g>
<g>
</g>
<g>
</g>
<g>
</g>
<g>
</g>
<g>
</g>
<g>
</g>
<g>
</g>
<g>
</g>
<g>
</g>
<g>
</g>
<g>
</g>
<g>
</g>
<g>
</g>
<g>
</g>
<g>
</g>
</svg>
